<?xml version="1.0" encoding="UTF-8"?>
<svg width="300px" height="89px" xmlns="http://www.w3.org/2000/svg" xmlns:xlink="http://www.w3.org/1999/xlink"   viewBox="0 0 176.736 52.962">
  <defs>
    <clipPath id="clip-path">
      <path id="Path_19834" data-name="Path 19834" d="M0,0H176.736V-52.962H0Z" fill="none"></path>
    </clipPath>
  </defs>
  <g id="Group_15777" data-name="Group 15777" transform="translate(0 52.962)">
    <g id="Group_15776" data-name="Group 15776" clip-path="url(#clip-path)">
      <g id="Group_15773" data-name="Group 15773" transform="translate(33.071 -33.332)">
        <path id="Path_19831" data-name="Path 19831" d="M0,0A2.9,2.9,0,0,0,2.96,2.961,2.879,2.879,0,0,0,5.922,0,2.916,2.916,0,0,0,2.96-2.961,2.935,2.935,0,0,0,0,0M5.571,5.2H.382v13.05H5.571ZM-12.143-5.007h-5.189V18.254h5.189V8.438A2.023,2.023,0,0,1-10.007,6.3,2.069,2.069,0,0,1-7.933,8.629v9.625h5.189V7.1c0-3.343-2.165-5.858-5.477-5.858a4.624,4.624,0,0,0-3.922,2.1Z" fill="#ffc621"></path>
      </g>
      <g id="Group_15774" data-name="Group 15774" transform="translate(175.906 -31.393)">
        <path id="Path_19832" data-name="Path 19832" d="M0,0A13.916,13.916,0,0,0-3.788-.565c-3.888,0-6.148,2.027-6.148,4.951A4.7,4.7,0,0,0-7.543,8.639l2.592,1.5c.8.465,1.1.9,1.1,1.429,0,.7-.565,1.229-1.728,1.229A7.474,7.474,0,0,1-9.57,11.331V15.85a11.753,11.753,0,0,0,4.32.831c3.954,0,6.081-2.193,6.081-5.051A4.981,4.981,0,0,0-1.894,7.144l-2.392-1.4c-.632-.4-.964-.664-.964-1.2,0-.632.5-1.2,1.628-1.2A7.658,7.658,0,0,1,0,4.452ZM-16.814-.233h-4.519V16.315h4.519v-9.6a2.741,2.741,0,0,1,2.791-2.857,5.6,5.6,0,0,1,2.426.5V-.465a8.434,8.434,0,0,0-1.3-.1,4.463,4.463,0,0,0-3.921,2.126ZM-31.8,3.19c1.927,0,3.356,1.163,3.423,2.858h-7.145A3.6,3.6,0,0,1-31.8,3.19m7.51,6.28a10.363,10.363,0,0,0,.265-2.16A7.536,7.536,0,0,0-31.767-.565a8.251,8.251,0,0,0-8.274,8.607,8.244,8.244,0,0,0,8.54,8.639,13.3,13.3,0,0,0,5.981-1.3V11.032a10.671,10.671,0,0,1-5.615,1.562c-2.326,0-3.988-1.23-4.387-3.124ZM-47.418,8.042a4.112,4.112,0,0,1-4.12,4.186,4.162,4.162,0,0,1-4.154-4.186,4.134,4.134,0,0,1,4.154-4.154,4.084,4.084,0,0,1,4.12,4.154m0,8.273h4.52V-6.613h-4.52V1.894a6.1,6.1,0,0,0-5.05-2.459c-4.719,0-7.876,3.755-7.876,8.607s3.157,8.639,7.843,8.639a6.191,6.191,0,0,0,5.083-2.492ZM-73.236-.233h-4.519V16.315h4.519v-9.6a2.729,2.729,0,0,1,2.824-2.857,2.77,2.77,0,0,1,2.825,3.056v9.4h4.552V5.649c0-3.556-2.293-6.214-5.848-6.214a4.892,4.892,0,0,0-4.353,2.426ZM-90.581,11.3a2.182,2.182,0,0,1,2.326-2.061A2.151,2.151,0,0,1-85.963,11.3a2.15,2.15,0,0,1-2.292,2.06,2.182,2.182,0,0,1-2.326-2.06m-2.626-6.613a8.665,8.665,0,0,1,4.254-1.229c1.728,0,3.057.831,3.057,2.824v.9a5.916,5.916,0,0,0-3.622-1.2A5.22,5.22,0,0,0-95.034,11.3a5.119,5.119,0,0,0,5.449,5.383A4.739,4.739,0,0,0-85.9,15.086v1.229h4.519V6.38c0-4.819-2.592-6.945-7.045-6.945A13.448,13.448,0,0,0-93.207.4Zm-4.485-11.3h-4.553V16.315h4.553ZM-104.471.432h-3.223v-1.2a1.64,1.64,0,0,1,1.761-1.761,4.148,4.148,0,0,1,1.528.3v-4.52a7.948,7.948,0,0,0-1.694-.2c-3.689,0-6.114,1.994-6.114,5.882V.432h-2.326V4.287h2.326V16.315h4.519V4.287h3.223Z" fill="#0f2338"></path>
      </g>
      <g id="Group_15775" data-name="Group 15775" transform="translate(47.002 -7.247)">
        <path id="Path_19833" data-name="Path 19833" d="M0,0-8.165-1.929-10.019-.866A21.344,21.344,0,0,1-19.9,1.912,21.088,21.088,0,0,1-22.868,1.8,21.005,21.005,0,0,1-35.03-3.8a21.043,21.043,0,0,1-6.684-14.77A21.045,21.045,0,0,1-36-33.743a21.046,21.046,0,0,1,14.77-6.685,21.047,21.047,0,0,1,15.17,5.717A20.987,20.987,0,0,1,.318-22.936a21.374,21.374,0,0,1-1.83,13l-.941,1.917ZM5.515-23.847A26.232,26.232,0,0,0-2.449-38.56,26.284,26.284,0,0,0-21.4-45.7a26.287,26.287,0,0,0-18.448,8.349A26.285,26.285,0,0,0-46.988-18.4,26.288,26.288,0,0,0-38.638.047a26.228,26.228,0,0,0,15.2,7A26.668,26.668,0,0,0-7.4,3.712l.047-.027L-7.3,3.7,7.73,7.247,3.2-7.57l.024-.05A26.675,26.675,0,0,0,5.515-23.847" fill="#ffc621"></path>
      </g>
    </g>
  </g>
</svg>
