<?xml version="1.0" encoding="UTF-8"?>
<svg xmlns="http://www.w3.org/2000/svg" width="64.0112413mm" height="64.0084605mm" version="1.1" viewBox="0 0 181.4491907 181.4413082">
  <defs>
    <style>
      .cls-1 {
        fill: #f39423;
      }

      .cls-2 {
        fill: #4e8fc7;
      }

      .cls-3 {
        fill: #fff;
      }

      .cls-4 {
        fill: #4c8ecc;
      }
    </style>
  </defs>
  <!-- Generator: Adobe Illustrator 28.7.6, SVG Export Plug-In . SVG Version: 1.2.0 Build 188)  -->
  <g>
    <g id="Laag_1">
      <g>
        <g>
          <path class="cls-1" d="M181.4491907,90.7186872c0,50.1119514-40.6185445,90.722621-90.730496,90.722621C40.6224933,181.4413082,0,140.8306386,0,90.7186872,0,40.6185445,40.6224933,0,90.7186947,0c50.1119514,0,90.730496,40.6185445,90.730496,90.7186872"/>
          <path class="cls-3" d="M156.5301866,78.2619403c0,40.0478439-32.4594124,72.5111901-72.5151238,72.5111901-40.0478439,0-72.5111901-32.4633462-72.5111901-72.5111901S43.9672188,5.7546914,84.0150627,5.7546914c40.0557114,0,72.5151238,32.4594049,72.5151238,72.5072488"/>
        </g>
        <polygon class="cls-4" points="47.6772081 80.3558404 84.1866685 19.1092102 120.7040077 80.3558404 47.6772081 80.3558404"/>
        <g>
          <path class="cls-3" d="M51.2903704,97.4333397h-1.3185285c-.3030634,0-.5352819-.255836-.5352819-.5707081v-3.7548558h-1.7121206v3.7705983c0,.3148721-.2518985.5549656-.5549619.5549656h-1.3185285c-.2991297,0-.5313482-.255836-.5313482-.5707081v-9.5052081c0-.3148721.2322185-.5746419.5313482-.5746419h1.3382085c.3030634,0,.5352819.2597697.5352819.5746419v3.38094h1.7121206v-3.38094c0-.3148721.2322185-.5746419.5352819-.5746419h1.3382085c.3030634,0,.5313482.2597697.5313482.5746419v9.5209506c0,.3148721-.2479647.5549656-.5510281.5549656"/>
          <path class="cls-3" d="M58.565495,90.0743791c0-.8855803-.2833834-1.3854435-.9642964-1.3854435-.6769755,0-.9957851.4998632-.9957851,1.3854435v4.0697279c0,.8855728.3188096,1.4051122.9957851,1.4051122.680913,0,.9642964-.5195394.9642964-1.4051122v-4.0697279ZM57.6208785,97.6195094c-2.499301,0-3.4990198-1.2555548-3.4990198-4.0500442v-2.9047018c0-2.7905556.9997189-4.0461105,3.4635974-4.0461105,2.479621,0,3.4793399,1.2555548,3.4793399,4.0461105v2.9047018c0,2.7944894-.9997189,4.0500442-3.4439174,4.0500442"/>
          <path class="cls-3" d="M66.2349999,97.6202976c-2.0506065,0-3.2116989-.8698378-3.2274414-3.109369,0-.3109309.2322185-.5707006.5352819-.5707006h1.1925774c.3030634,0,.5352819.2597697.5352819.5707006,0,.649428.192866,1.1689674,1.0351451,1.1689674.5707081,0,.9091977-.3345484.9091977-.9249402v-.3542321c0-.7753679-.7517579-1.1453425-1.9994453-1.6806319-1.4956408-.6494205-2.0860252-1.4444721-2.0860252-3.164464,0-2.0702902,1.0902475-2.9361867,2.9794804-2.9361867,1.9797615,0,3.2589263.7202729,3.2589263,2.7905556,0,.3345559-.2282772.5549656-.5313482.5549656h-1.1571512c-.3070047,0-.5352819-.2204098-.5352819-.5549656,0-.4801795-.2676447-.850154-.928874-.850154-.5195394,0-.8029266.2400935-.8029266.7950516v.2951959c0,.5156057.6258106.9603589,1.747543,1.4051197,1.6766906.665163,2.4087723,1.5350008,2.4087723,3.4557186,0,2.3339936-1.2673636,3.109369-3.3337125,3.109369"/>
          <path class="cls-3" d="M77.1122737,88.8912456h-1.4444796v7.9702073c0,.3148721-.2361522.5707081-.5392156.5707081h-1.3185323c-.2991297,0-.5352819-.255836-.5352819-.5707081v-7.9702073h-1.4405384c-.3030634,0-.5549656-.2400935-.5549656-.5549656v-.9957776c0-.3188134.2519022-.5588994.5549656-.5588994l5.2780478.0196762c.3030634,0,.5510244.2204098.5510244.5549656v.9800351c0,.3148721-.247961.5549656-.5510244.5549656"/>
          <path class="cls-3" d="M84.6873125,97.4333397h-4.5656499c-.3030634,0-.5313482-.255836-.5313482-.5707081v-9.5052081c0-.3148721.2282847-.5746419.5313482-.5746419h4.4239601c.3030634,0,.5549581.240086.5549581.5549581v.9800427c0,.3148721-.2518947.5746419-.5549581.5746419h-2.5662121v1.995504h2.1214514c.3030634,0,.5549656.2400935.5549656.5549656v.9997189c0,.3148721-.2519022.5707081-.5549656.5707081h-2.1214514v2.2592075h2.707902c.3030634,0,.5549656.240086.5549656.5549656v1.0351376c0,.3148721-.2519022.5707081-.5549656.5707081"/>
          <path class="cls-3" d="M92.4103471,97.4333397h-4.4082176c-.3030634,0-.5313406-.255836-.5313406-.5707081v-9.5052081c0-.3148721.2282772-.5746419.5313406-.5746419h1.322466c.3030634,0,.5352819.2597697.5352819.5746419v7.9151049h2.5504696c.3030634,0,.5510244.240086.5510244.5549656v1.0508801c0,.3148721-.247961.5549656-.5510244.5549656"/>
          <path class="cls-3" d="M99.9877506,97.4333397h-4.4042763c-.3030634,0-.5352819-.255836-.5352819-.5707081v-9.5052081c0-.3148721.2322185-.5746419.5352819-.5746419h1.3185248c.3030634,0,.5352819.2597697.5352819.5746419v7.9151049h2.5504696c.3030634,0,.5510244.240086.5510244.5549656v1.0508801c0,.3148721-.247961.5549656-.5510244.5549656"/>
          <path class="cls-3" d="M104.6427505,97.4333397h-1.322466c-.3030634,0-.5313482-.255836-.5313482-.5707081v-9.5052081c0-.3148721.2282847-.5746419.5313482-.5746419h1.3382085c.3030634,0,.5352819.2597697.5352819.5746419v9.5209506c0,.3148721-.247961.5549656-.5510244.5549656"/>
          <path class="cls-3" d="M114.2703701,97.4333397h-1.7829618c-.3030709,0-.4447608-.2755122-.5510319-.5707081l-1.9089091-6.2698992v6.2856417c0,.3148721-.2519022.5549656-.5549656.5549656h-1.0705638c-.3030709,0-.5313482-.255836-.5313482-.5707081v-9.5052081c0-.3148721.2282772-.5746419.5313482-.5746419h1.8734904c.3227396,0,.464437.2794459.5549581.5746419l1.8341304,5.8605647v-5.8605647c0-.3148721.2322185-.5746419.5352894-.5746419h1.0863063c.3030634,0,.5392232.2597697.5392232.5746419v9.5209506c0,.3148721-.2519022.5549656-.5549656.5549656"/>
          <path class="cls-3" d="M120.5835631,97.6014021c-2.9086355,0-3.4754024-1.5901032-3.4754024-4.2901377v-2.4048386c0-2.6055646.7478167-4.2901377,3.4557261-4.2901377,1.7514768,0,3.2471176.6100681,3.2471176,3.0700091,0,.3148721-.2322185.5746419-.5352819.5746419h-1.3027823c-.3030709,0-.5352894-.2597697-.5352894-.5746419,0-.0905287.0905287-.9957851-.8540878-.9957851-.6769792,0-.9800427.4605032-.9800427,1.3106573v4.2901377c0,.8147278.3227471,1.2555548.9957851,1.2555548.9997189,0,.858029-1.7199918.858029-1.7199918v-.1653073h-.4447608c-.3227396,0-.5549581-.2597697-.5549581-.5746419v-.8855803c0-.3148721.2322185-.5549656.5549581-.5549656h2.2985749c.3030634,0,.5352819.2597697.5352819.5746419v1.5350083c0,2.4402573-.7478242,3.8453769-3.2628676,3.8453769"/>
          <path class="cls-3" d="M35.4475598,111.1035264h-1.3185285c-.3030634,0-.5352819-.2597697-.5352819-.5746419v-9.5012744c0-.3188134.2322185-.5746419.5352819-.5746419h1.3382085c.3030634,0,.5313482.2558285.5313482.5746419v9.5209506c0,.3148721-.2479647.5549656-.5510281.5549656"/>
          <path class="cls-3" d="M45.0775404,111.1035264h-1.786903c-.2991259,0-.4408195-.2755122-.5470906-.5746419l-1.9089129-6.2698992v6.2895755c0,.3148721-.2518985.5549656-.5549619.5549656h-1.0705676c-.3030634,0-.5313482-.2597697-.5313482-.5746419v-9.5012744c0-.3188134.2282847-.5746419.5313482-.5746419h1.8734904c.3188096,0,.464437.2755122.5549656.5746419l1.8341304,5.8605647v-5.8605647c0-.3188134.2322185-.5746419.5352819-.5746419h1.08631c.3030672,0,.5352857.2558285.5352857.5746419v9.5209506c0,.3148721-.2479647.5549656-.5510281.5549656"/>
          <path class="cls-3" d="M53.4385847,102.5602537h-1.4444759v7.9702073c0,.3148721-.2322185.5707081-.5352857.5707081h-1.3185285c-.3030634,0-.5352819-.255836-.5352819-.5707081v-7.9702073h-1.4444759c-.3030672,0-.5510281-.2400935-.5510281-.5549656v-.9957776c0-.3188134.247961-.5549656.5510281-.5549656l5.2780478.0157425c.3030634,0,.5549619.2204098.5549619.5549656v.9800351c0,.3148721-.2518985.5549656-.5549619.5549656"/>
          <path class="cls-3" d="M61.018353,111.1035264h-4.5656499c-.3030634,0-.5352819-.2597697-.5352819-.5746419v-9.5012744c0-.3188134.2322185-.5746419.5352819-.5746419h4.4239563c.3030672,0,.5510281.2361522.5510281.5549581v.9800427c0,.3148721-.247961.5746419-.5510281.5746419h-2.5701459v1.995504h2.1253889c.2991297,0,.5510281.2400935.5510281.5510244v.9997189c0,.3148797-.2518985.5746494-.5510281.5746494h-2.1253889v2.2592075h2.7118395c.3030634,0,.5549619.240086.5549619.5510244v1.0351451c0,.3148721-.2518985.5746419-.5549619.5746419"/>
          <path class="cls-3" d="M67.9727011,103.5233678c0-.7793091-.2873209-1.14535-.9997189-1.14535h-.7675004v2.7315194h.7163317c.7635666,0,1.0508876-.2755122,1.0508876-1.10599v-.4801795ZM69.8973602,111.1039243h-1.322466c-.2991297,0-.4959219-.2597697-.5313482-.5746419,0,0-.0865874-.3306146-.0865874-.9406827v-.9249402c0-1.1453425-.3424234-1.6845656-1.0902475-1.6845656h-.6769717v3.5501885c0,.3148721-.2322185.5746419-.5352819.5746419h-1.3185323c-.3030634,0-.5352819-.2597697-.5352819-.5746419v-9.5012744c0-.3188134.2322185-.5746419.5352819-.5746419h3.0660678c2.0151877,0,2.9440617.850154,2.9440617,2.7551294v.425077c0,1.2398124-.3778496,2.1253926-1.4641559,2.436331,1.10599.4093345,1.4798983,1.4798983,1.4798983,2.7236444v.850154c0,.4998632.0708449.8855803.0708449.8855803.0354262.3148721-.2322185.5746419-.5352819.5746419"/>
          <path class="cls-3" d="M79.1888549,111.1035264h-1.7829618c-.3030709,0-.4447608-.2755122-.5549656-.5746419l-1.9089166-6.2698992v6.2895755c0,.3148721-.247961.5549656-.5510244.5549656h-1.0666301c-.3070047,0-.5352819-.2597697-.5352819-.5746419v-9.5012744c0-.3188134.2282772-.5746419.5352819-.5746419h1.8695567c.3227396,0,.464437.2755122.5510244.5746419l1.8380642,5.8605647v-5.8605647c0-.3188134.2322185-.5746419.5352894-.5746419h1.0863063c.3030634,0,.5352819.2558285.5352819.5746419v9.5209506c0,.3148721-.247961.5549656-.5510244.5549656"/>
          <path class="cls-3" d="M85.2525103,102.7275279l-.6966555,4.4908712h1.369701l-.6730455-4.4908712ZM88.228057,111.103136h-1.3027823c-.3030709,0-.4998632-.2597697-.5510319-.5746419l-.1967923-1.3303335h-1.8892329l-.2125423,1.3303335c-.0551024.3148721-.2322185.5746419-.5392156.5746419h-1.2831061c-.3030634,0-.6061343-.2597697-.5549656-.5746419l1.8380717-9.5012744c.0551024-.3188134.2361522-.5746419.5392156-.5746419h2.3339936c.3030634,0,.4959219.2558285.5510244.5746419l1.8026455,9.5012744c.0551024.3148721-.2322185.5746419-.5352819.5746419"/>
          <path class="cls-3" d="M95.9853317,102.5602537h-1.4444796v7.9702073c0,.3148721-.2322185.5707081-.5352819.5707081h-1.322466c-.2991297,0-.5352819-.255836-.5352819-.5707081v-7.9702073h-1.4405384c-.3030634,0-.5510319-.2400935-.5510319-.5549656v-.9957776c0-.3188134.2479685-.5549656.5510319-.5549656l5.2780478.0157425c.3030634,0,.5510244.2204098.5510244.5549656v.9800351c0,.3148721-.247961.5549656-.5510244.5549656"/>
          <path class="cls-3" d="M100.4608508,111.1035264h-1.322466c-.3030634,0-.5313482-.2597697-.5313482-.5746419v-9.5012744c0-.3188134.2282847-.5746419.5313482-.5746419h1.3382085c.3030634,0,.5352819.2558285.5352819.5746419v9.5209506c0,.3148721-.247961.5549656-.5510244.5549656"/>
          <path class="cls-3" d="M107.8607479,103.7449636c0-.889514-.2873209-1.3854435-.9642927-1.3854435-.6769792,0-.9997264.4959295-.9997264,1.3854435v4.0697279c0,.8855728.3227471,1.4051122.9997264,1.4051122.6769717,0,.9642927-.5195394.9642927-1.4051122v-4.0697279ZM106.9161315,111.2900939c-2.499301,0-3.4990198-1.2594886-3.4990198-4.0500442v-2.9047018c0-2.7944894.9997189-4.0500442,3.4635936-4.0500442,2.4796247,0,3.4754099,1.2555548,3.4754099,4.0500442v2.9047018c0,2.7905556-.9957851,4.0500442-3.4399837,4.0500442"/>
          <path class="cls-3" d="M119.039899,111.1035264h-1.7829618c-.3030709,0-.4447608-.2755122-.5510319-.5746419l-1.9089091-6.2698992v6.2895755c0,.3148721-.2479685.5549656-.5549656.5549656h-1.0666301c-.3070047,0-.5352819-.2597697-.5352819-.5746419v-9.5012744c0-.3188134.2282772-.5746419.5352819-.5746419h1.8734904c.3188059,0,.4605032.2755122.5510244.5746419l1.8380717,5.8605647v-5.8605647c0-.3188134.2282772-.5746419.5313482-.5746419h1.0863063c.3030634,0,.5392232.2558285.5392232.5746419v9.5209506c0,.3148721-.2519022.5549656-.5549656.5549656"/>
          <path class="cls-3" d="M125.1063021,102.7275279l-.6966555,4.4908712h1.369701l-.6730455-4.4908712ZM128.0818488,111.103136h-1.3027898c-.3030634,0-.4998557-.2597697-.5549581-.5746419l-.1928585-1.3303335h-1.8931741l-.2125348,1.3303335c-.0551024.3148721-.2282847.5746419-.5352819.5746419h-1.2831061c-.3030634,0-.6061343-.2597697-.5549656-.5746419l1.8380717-9.5012744c.0551024-.3188134.2322185-.5746419.5352819-.5746419h2.3339861c.3070122,0,.4998707.2558285.5549731.5746419l1.8026455,9.5012744c.0551024.3148721-.232226.5746419-.5352894.5746419"/>
          <path class="cls-3" d="M135.4805748,111.1035264h-4.4042763c-.3030634,0-.5352894-.2597697-.5352894-.5746419v-9.5012744c0-.3188134.232226-.5746419.5352894-.5746419h1.3185248c.3030634,0,.5352894.2558285.5352894.5746419v7.9151049h2.5504621c.3030634,0,.5549581.240086.5549581.5510244v1.0548213c0,.3148721-.2518947.5549656-.5549581.5549656"/>
          <path d="M51.2903704,97.4333397h-1.3185285c-.3030634,0-.5352819-.255836-.5352819-.5707081v-3.7548558h-1.7121206v3.7705983c0,.3148721-.2518985.5549656-.5549619.5549656h-1.3185285c-.2991297,0-.5313482-.255836-.5313482-.5707081v-9.5052081c0-.3148721.2322185-.5746419.5313482-.5746419h1.3382085c.3030634,0,.5352819.2597697.5352819.5746419v3.38094h1.7121206v-3.38094c0-.3148721.2322185-.5746419.5352819-.5746419h1.3382085c.3030634,0,.5313482.2597697.5313482.5746419v9.5209506c0,.3148721-.2479647.5549656-.5510281.5549656"/>
          <path d="M58.565495,90.0743791c0-.8855803-.2833834-1.3854435-.9642964-1.3854435-.6769755,0-.9957851.4998632-.9957851,1.3854435v4.0697279c0,.8855728.3188096,1.4051122.9957851,1.4051122.680913,0,.9642964-.5195394.9642964-1.4051122v-4.0697279ZM57.6208785,97.6195094c-2.499301,0-3.4990198-1.2555548-3.4990198-4.0500442v-2.9047018c0-2.7905556.9997189-4.0461105,3.4635974-4.0461105,2.479621,0,3.4793399,1.2555548,3.4793399,4.0461105v2.9047018c0,2.7944894-.9997189,4.0500442-3.4439174,4.0500442"/>
          <path d="M66.2349999,97.6202976c-2.0506065,0-3.2116989-.8698378-3.2274414-3.109369,0-.3109309.2322185-.5707006.5352819-.5707006h1.1925774c.3030634,0,.5352819.2597697.5352819.5707006,0,.649428.192866,1.1689674,1.0351451,1.1689674.5707081,0,.9091977-.3345484.9091977-.9249402v-.3542321c0-.7753679-.7517579-1.1453425-1.9994453-1.6806319-1.4956408-.6494205-2.0860252-1.4444721-2.0860252-3.164464,0-2.0702902,1.0902475-2.9361867,2.9794804-2.9361867,1.9797615,0,3.2589263.7202729,3.2589263,2.7905556,0,.3345559-.2282772.5549656-.5313482.5549656h-1.1571512c-.3070047,0-.5352819-.2204098-.5352819-.5549656,0-.4801795-.2676447-.850154-.928874-.850154-.5195394,0-.8029266.2400935-.8029266.7950516v.2951959c0,.5156057.6258106.9603589,1.747543,1.4051197,1.6766906.665163,2.4087723,1.5350008,2.4087723,3.4557186,0,2.3339936-1.2673636,3.109369-3.3337125,3.109369"/>
          <path d="M77.1122737,88.8912456h-1.4444796v7.9702073c0,.3148721-.2361522.5707081-.5392156.5707081h-1.3185323c-.2991297,0-.5352819-.255836-.5352819-.5707081v-7.9702073h-1.4405384c-.3030634,0-.5549656-.2400935-.5549656-.5549656v-.9957776c0-.3188134.2519022-.5588994.5549656-.5588994l5.2780478.0196762c.3030634,0,.5510244.2204098.5510244.5549656v.9800351c0,.3148721-.247961.5549656-.5510244.5549656"/>
          <path d="M84.6873125,97.4333397h-4.5656499c-.3030634,0-.5313482-.255836-.5313482-.5707081v-9.5052081c0-.3148721.2282847-.5746419.5313482-.5746419h4.4239601c.3030634,0,.5549581.240086.5549581.5549581v.9800427c0,.3148721-.2518947.5746419-.5549581.5746419h-2.5662121v1.995504h2.1214514c.3030634,0,.5549656.2400935.5549656.5549656v.9997189c0,.3148721-.2519022.5707081-.5549656.5707081h-2.1214514v2.2592075h2.707902c.3030634,0,.5549656.240086.5549656.5549656v1.0351376c0,.3148721-.2519022.5707081-.5549656.5707081"/>
          <path d="M92.4103471,97.4333397h-4.4082176c-.3030634,0-.5313406-.255836-.5313406-.5707081v-9.5052081c0-.3148721.2282772-.5746419.5313406-.5746419h1.322466c.3030634,0,.5352819.2597697.5352819.5746419v7.9151049h2.5504696c.3030634,0,.5510244.240086.5510244.5549656v1.0508801c0,.3148721-.247961.5549656-.5510244.5549656"/>
          <path d="M99.9877506,97.4333397h-4.4042763c-.3030634,0-.5352819-.255836-.5352819-.5707081v-9.5052081c0-.3148721.2322185-.5746419.5352819-.5746419h1.3185248c.3030634,0,.5352819.2597697.5352819.5746419v7.9151049h2.5504696c.3030634,0,.5510244.240086.5510244.5549656v1.0508801c0,.3148721-.247961.5549656-.5510244.5549656"/>
          <path d="M104.6427505,97.4333397h-1.322466c-.3030634,0-.5313482-.255836-.5313482-.5707081v-9.5052081c0-.3148721.2282847-.5746419.5313482-.5746419h1.3382085c.3030634,0,.5352819.2597697.5352819.5746419v9.5209506c0,.3148721-.247961.5549656-.5510244.5549656"/>
          <path d="M114.2703701,97.4333397h-1.7829618c-.3030709,0-.4447608-.2755122-.5510319-.5707081l-1.9089091-6.2698992v6.2856417c0,.3148721-.2519022.5549656-.5549656.5549656h-1.0705638c-.3030709,0-.5313482-.255836-.5313482-.5707081v-9.5052081c0-.3148721.2282772-.5746419.5313482-.5746419h1.8734904c.3227396,0,.464437.2794459.5549581.5746419l1.8341304,5.8605647v-5.8605647c0-.3148721.2322185-.5746419.5352894-.5746419h1.0863063c.3030634,0,.5392232.2597697.5392232.5746419v9.5209506c0,.3148721-.2519022.5549656-.5549656.5549656"/>
          <path d="M120.5835631,97.6014021c-2.9086355,0-3.4754024-1.5901032-3.4754024-4.2901377v-2.4048386c0-2.6055646.7478167-4.2901377,3.4557261-4.2901377,1.7514768,0,3.2471176.6100681,3.2471176,3.0700091,0,.3148721-.2322185.5746419-.5352819.5746419h-1.3027823c-.3030709,0-.5352894-.2597697-.5352894-.5746419,0-.0905287.0905287-.9957851-.8540878-.9957851-.6769792,0-.9800427.4605032-.9800427,1.3106573v4.2901377c0,.8147278.3227471,1.2555548.9957851,1.2555548.9997189,0,.858029-1.7199918.858029-1.7199918v-.1653073h-.4447608c-.3227396,0-.5549581-.2597697-.5549581-.5746419v-.8855803c0-.3148721.2322185-.5549656.5549581-.5549656h2.2985749c.3030634,0,.5352819.2597697.5352819.5746419v1.5350083c0,2.4402573-.7478242,3.8453769-3.2628676,3.8453769"/>
          <path d="M35.4475598,111.1035264h-1.3185285c-.3030634,0-.5352819-.2597697-.5352819-.5746419v-9.5012744c0-.3188134.2322185-.5746419.5352819-.5746419h1.3382085c.3030634,0,.5313482.2558285.5313482.5746419v9.5209506c0,.3148721-.2479647.5549656-.5510281.5549656"/>
          <path d="M45.0775404,111.1035264h-1.786903c-.2991259,0-.4408195-.2755122-.5470906-.5746419l-1.9089129-6.2698992v6.2895755c0,.3148721-.2518985.5549656-.5549619.5549656h-1.0705676c-.3030634,0-.5313482-.2597697-.5313482-.5746419v-9.5012744c0-.3188134.2282847-.5746419.5313482-.5746419h1.8734904c.3188096,0,.464437.2755122.5549656.5746419l1.8341304,5.8605647v-5.8605647c0-.3188134.2322185-.5746419.5352819-.5746419h1.08631c.3030672,0,.5352857.2558285.5352857.5746419v9.5209506c0,.3148721-.2479647.5549656-.5510281.5549656"/>
          <path d="M53.4385847,102.5602537h-1.4444759v7.9702073c0,.3148721-.2322185.5707081-.5352857.5707081h-1.3185285c-.3030634,0-.5352819-.255836-.5352819-.5707081v-7.9702073h-1.4444759c-.3030672,0-.5510281-.2400935-.5510281-.5549656v-.9957776c0-.3188134.247961-.5549656.5510281-.5549656l5.2780478.0157425c.3030634,0,.5549619.2204098.5549619.5549656v.9800351c0,.3148721-.2518985.5549656-.5549619.5549656"/>
          <path d="M61.018353,111.1035264h-4.5656499c-.3030634,0-.5352819-.2597697-.5352819-.5746419v-9.5012744c0-.3188134.2322185-.5746419.5352819-.5746419h4.4239563c.3030672,0,.5510281.2361522.5510281.5549581v.9800427c0,.3148721-.247961.5746419-.5510281.5746419h-2.5701459v1.995504h2.1253889c.2991297,0,.5510281.2400935.5510281.5510244v.9997189c0,.3148797-.2518985.5746494-.5510281.5746494h-2.1253889v2.2592075h2.7118395c.3030634,0,.5549619.240086.5549619.5510244v1.0351451c0,.3148721-.2518985.5746419-.5549619.5746419"/>
          <path d="M67.9727011,103.5233678c0-.7793091-.2873209-1.14535-.9997189-1.14535h-.7675004v2.7315194h.7163317c.7635666,0,1.0508876-.2755122,1.0508876-1.10599v-.4801795ZM69.8973602,111.1039243h-1.322466c-.2991297,0-.4959219-.2597697-.5313482-.5746419,0,0-.0865874-.3306146-.0865874-.9406827v-.9249402c0-1.1453425-.3424234-1.6845656-1.0902475-1.6845656h-.6769717v3.5501885c0,.3148721-.2322185.5746419-.5352819.5746419h-1.3185323c-.3030634,0-.5352819-.2597697-.5352819-.5746419v-9.5012744c0-.3188134.2322185-.5746419.5352819-.5746419h3.0660678c2.0151877,0,2.9440617.850154,2.9440617,2.7551294v.425077c0,1.2398124-.3778496,2.1253926-1.4641559,2.436331,1.10599.4093345,1.4798983,1.4798983,1.4798983,2.7236444v.850154c0,.4998632.0708449.8855803.0708449.8855803.0354262.3148721-.2322185.5746419-.5352819.5746419"/>
          <path d="M79.1888549,111.1035264h-1.7829618c-.3030709,0-.4447608-.2755122-.5549656-.5746419l-1.9089166-6.2698992v6.2895755c0,.3148721-.247961.5549656-.5510244.5549656h-1.0666301c-.3070047,0-.5352819-.2597697-.5352819-.5746419v-9.5012744c0-.3188134.2282772-.5746419.5352819-.5746419h1.8695567c.3227396,0,.464437.2755122.5510244.5746419l1.8380642,5.8605647v-5.8605647c0-.3188134.2322185-.5746419.5352894-.5746419h1.0863063c.3030634,0,.5352819.2558285.5352819.5746419v9.5209506c0,.3148721-.247961.5549656-.5510244.5549656"/>
          <path d="M85.2525103,102.7275279l-.6966555,4.4908712h1.369701l-.6730455-4.4908712ZM88.228057,111.103136h-1.3027823c-.3030709,0-.4998632-.2597697-.5510319-.5746419l-.1967923-1.3303335h-1.8892329l-.2125423,1.3303335c-.0551024.3148721-.2322185.5746419-.5392156.5746419h-1.2831061c-.3030634,0-.6061343-.2597697-.5549656-.5746419l1.8380717-9.5012744c.0551024-.3188134.2361522-.5746419.5392156-.5746419h2.3339936c.3030634,0,.4959219.2558285.5510244.5746419l1.8026455,9.5012744c.0551024.3148721-.2322185.5746419-.5352819.5746419"/>
          <path d="M95.9853317,102.5602537h-1.4444796v7.9702073c0,.3148721-.2322185.5707081-.5352819.5707081h-1.322466c-.2991297,0-.5352819-.255836-.5352819-.5707081v-7.9702073h-1.4405384c-.3030634,0-.5510319-.2400935-.5510319-.5549656v-.9957776c0-.3188134.2479685-.5549656.5510319-.5549656l5.2780478.0157425c.3030634,0,.5510244.2204098.5510244.5549656v.9800351c0,.3148721-.247961.5549656-.5510244.5549656"/>
          <path d="M100.4608508,111.1035264h-1.322466c-.3030634,0-.5313482-.2597697-.5313482-.5746419v-9.5012744c0-.3188134.2282847-.5746419.5313482-.5746419h1.3382085c.3030634,0,.5352819.2558285.5352819.5746419v9.5209506c0,.3148721-.247961.5549656-.5510244.5549656"/>
          <path d="M107.8607479,103.7449636c0-.889514-.2873209-1.3854435-.9642927-1.3854435-.6769792,0-.9997264.4959295-.9997264,1.3854435v4.0697279c0,.8855728.3227471,1.4051122.9997264,1.4051122.6769717,0,.9642927-.5195394.9642927-1.4051122v-4.0697279ZM106.9161315,111.2900939c-2.499301,0-3.4990198-1.2594886-3.4990198-4.0500442v-2.9047018c0-2.7944894.9997189-4.0500442,3.4635936-4.0500442,2.4796247,0,3.4754099,1.2555548,3.4754099,4.0500442v2.9047018c0,2.7905556-.9957851,4.0500442-3.4399837,4.0500442"/>
          <path d="M119.039899,111.1035264h-1.7829618c-.3030709,0-.4447608-.2755122-.5510319-.5746419l-1.9089091-6.2698992v6.2895755c0,.3148721-.2479685.5549656-.5549656.5549656h-1.0666301c-.3070047,0-.5352819-.2597697-.5352819-.5746419v-9.5012744c0-.3188134.2282772-.5746419.5352819-.5746419h1.8734904c.3188059,0,.4605032.2755122.5510244.5746419l1.8380717,5.8605647v-5.8605647c0-.3188134.2282772-.5746419.5313482-.5746419h1.0863063c.3030634,0,.5392232.2558285.5392232.5746419v9.5209506c0,.3148721-.2519022.5549656-.5549656.5549656"/>
          <path d="M125.1063021,102.7275279l-.6966555,4.4908712h1.369701l-.6730455-4.4908712ZM128.0818488,111.103136h-1.3027898c-.3030634,0-.4998557-.2597697-.5549581-.5746419l-.1928585-1.3303335h-1.8931741l-.2125348,1.3303335c-.0551024.3148721-.2282847.5746419-.5352819.5746419h-1.2831061c-.3030634,0-.6061343-.2597697-.5549656-.5746419l1.8380717-9.5012744c.0551024-.3188134.2322185-.5746419.5352819-.5746419h2.3339861c.3070122,0,.4998707.2558285.5549731.5746419l1.8026455,9.5012744c.0551024.3148721-.232226.5746419-.5352894.5746419"/>
          <path d="M135.4805748,111.1035264h-4.4042763c-.3030634,0-.5352894-.2597697-.5352894-.5746419v-9.5012744c0-.3188134.232226-.5746419.5352894-.5746419h1.3185248c.3030634,0,.5352894.2558285.5352894.5746419v7.9151049h2.5504621c.3030634,0,.5549581.240086.5549581.5510244v1.0548213c0,.3148721-.2518947.5549656-.5549581.5549656"/>
        </g>
        <polygon class="cls-3" points="104.432573 68.1761822 94.6793964 57.8562387 84.9222861 68.1761822 86.7091891 68.1761822 86.7091891 80.4129097 102.64567 80.4129097 102.64567 68.1761822 104.432573 68.1761822"/>
        <rect class="cls-2" x="92.2466163" y="71.7058987" width="4.8529708" height="8.702289"/>
        <polygon class="cls-3" points="83.7360072 73.3019101 78.6075242 64.4421888 81.890068 65.6111487 77.4542992 55.9957357 79.8119103 56.6766412 75.4194427 46.5141301 71.0348426 56.6766412 73.3845712 55.9996694 68.9527437 65.6111487 72.2313538 64.4500562 67.0989295 73.3019101 73.7073184 72.5540859 73.7073184 80.2369723 77.1354933 80.2369723 77.1354933 72.5540859 83.7360072 73.3019101"/>
        <path d="M93.6544911,25.3586525c.1377561-.047235.2046673-.1535061.2046673-.3109459,0-.1220061-.0590362-.2125273-.1731823-.2636959-.0787124-.0354337-.1692411-.0551024-.2715709-.0551024-.1141461,0-.1771161.031485-.2007335.0944549-.0196837.0629699-.031485.2558435-.031485.5825093.2322185,0,.3857171-.015735.4723045-.0472199M94.0520169,25.4216224c-.0983961.047235-.208601.0787199-.3345484.0905211v.0196837l.02361.0078675c.2400935,0,.3935921.1889248.464437.5707081.0275512.0984036.0590437.1456386.0984036.1456386.031485,0,.0511612-.01575.0629699-.047235.0157425-.031485.0236175-.0826537.0354262-.1574398h.1416898c-.0078675.1298886-.0432937.247961-.1141386.3502984s-.1731823.1535061-.3030634.1535061c-.1180799,0-.2086085-.0393675-.2715784-.1180874-.0354262-.0432862-.0669112-.1102049-.0905287-.200726-.0118087-.0669187-.0196762-.1180724-.0236175-.1535061-.0078675-.0393524-.0118012-.0708374-.0118012-.1062711-.0314925-.1692411-.1062711-.2794459-.2204173-.3306146-.0708449-.0275512-.1771161-.0393524-.3266734-.0354187v.3581658c0,.1377561.0157425.232226.0432937.2755122.0275512.047235.1023299.0669187.2243435.0669187v.1928585h-.9603589v-.1928585c.1298811,0,.2046673-.0315.2322185-.0905362.0236175-.0629699.0354187-.2440272.0354187-.5470906v-.3345484c0-.1377561-.0039337-.247961-.0039337-.3345484-.0039337-.1023374-.0157425-.1731898-.0511687-.2125423-.031485-.0393524-.1023299-.0590362-.2125348-.0590362v-.1928585h.673038c.3030634,0,.4762457,0,.5156057.0039337.1456311.0118012.2637035.0354187.3620996.0787199.1928585.0826537.2873209.2204098.2873209.4093345,0,.1692411-.0905211.2991297-.2755122.3896508M92.3595763,26.665376c.2991297.3030634.6612368.4526207,1.0863138.4526207.4132683,0,.7753754-.1456236,1.0705638-.4408195.3109384-.3069972.4683707-.6887805.4683707-1.14535,0-.4368858-.1495573-.8108016-.448687-1.1217325-.3030709-.3109309-.6691043-.464437-1.0902475-.464437-.432952,0-.7989929.1574398-1.0981225.4762382-.2991222.3109459-.448687.680913-.448687,1.1099313,0,.448702.1495648.8265366.4604957,1.1335487M94.6778274,24.1896851c.3699746.3620996.5549656.8068679.5549656,1.3421422,0,.5234732-.1810573.9642927-.5352894,1.3224585-.3502909.3542321-.7675004.5313557-1.2555473.5313557-.5037969,0-.9328152-.184991-1.2791723-.5470906-.3463571-.3581658-.5195394-.7950516-.5195394-1.3067235,0-.5195394.1810498-.9603589.5352819-1.3224585.3542321-.3542321.7714416-.5313557,1.2634298-.5313557.4723045,0,.8855728.1731898,1.2358711.5116719"/>
      </g>
    </g>
    <metadata>
      <sfw xmlns="http://ns.adobe.com/SaveForWeb/1.0/">
        <slices/>
        <sliceSourceBounds x="202.14" y="-391.23" width="181.45" height="181.44" bottomLeftOrigin="true"/>
      </sfw>
    </metadata>
  </g>
</svg>